<svg id="SvgjsSvg1086" width="675.5" height="334" xmlns="http://www.w3.org/2000/svg" version="1.1" xmlns:xlink="http://www.w3.org/1999/xlink" xmlns:svgjs="http://svgjs.com/svgjs"><defs id="SvgjsDefs1087"><marker id="SvgjsMarker1102" markerWidth="16" markerHeight="12" refX="16" refY="6" viewBox="0 0 16 12" orient="auto" markerUnits="userSpaceOnUse"><path id="SvgjsPath1103" d="M0,2 L14,6 L0,11 L0,2" fill="#ff0000" stroke="#ff0000" stroke-width="2"></path></marker><marker id="SvgjsMarker1118" markerWidth="16" markerHeight="12" refX="16" refY="6" viewBox="0 0 16 12" orient="auto" markerUnits="userSpaceOnUse"><path id="SvgjsPath1119" d="M0,2 L14,6 L0,11 L0,2" fill="#ff0000" stroke="#ff0000" stroke-width="2"></path></marker><marker id="SvgjsMarker1136" markerWidth="16" markerHeight="12" refX="16" refY="6" viewBox="0 0 16 12" orient="auto" markerUnits="userSpaceOnUse"><path id="SvgjsPath1137" d="M0,2 L14,6 L0,11 L0,2" fill="#ff0000" stroke="#ff0000" stroke-width="2"></path></marker><marker id="SvgjsMarker1140" markerWidth="16" markerHeight="12" refX="16" refY="6" viewBox="0 0 16 12" orient="auto" markerUnits="userSpaceOnUse"><path id="SvgjsPath1141" d="M0,2 L14,6 L0,11 L0,2" fill="#0066cc" stroke="#0066cc" stroke-width="2"></path></marker><marker id="SvgjsMarker1158" markerWidth="16" markerHeight="12" refX="16" refY="6" viewBox="0 0 16 12" orient="auto" markerUnits="userSpaceOnUse"><path id="SvgjsPath1159" d="M0,2 L14,6 L0,11 L0,2" fill="#0066cc" stroke="#0066cc" stroke-width="2"></path></marker></defs><g id="SvgjsG1088" transform="translate(25,120)"><path id="SvgjsPath1089" d="M 0 4Q 0 0 4 0L 96 0Q 100 0 100 4L 100 66Q 100 70 96 70L 4 70Q 0 70 0 66Z" stroke="rgba(50,50,50,1)" stroke-width="2" fill-opacity="1" fill="#ffffff"></path><g id="SvgjsG1090"><text id="SvgjsText1091" font-family="微软雅黑" text-anchor="middle" font-size="18px" width="36" fill="#323232" font-weight="700" align="middle" anchor="middle" family="微软雅黑" size="18px" weight="700" font-style="" opacity="1" y="20.8" transform="rotate(0)"><tspan id="SvgjsTspan1092" dy="22" x="50"><tspan id="SvgjsTspan1093" style="text-decoration:;">用户</tspan></tspan></text></g></g><g id="SvgjsG1094" transform="translate(233,123)"><path id="SvgjsPath1095" d="M 0 4Q 0 0 4 0L 127 0Q 131 0 131 4L 131 60Q 131 64 127 64L 4 64Q 0 64 0 60Z" stroke="rgba(50,50,50,1)" stroke-width="2" fill-opacity="1" fill="#ffffff"></path><g id="SvgjsG1096"><text id="SvgjsText1097" font-family="微软雅黑" text-anchor="middle" font-size="18px" width="92" fill="#323232" font-weight="700" align="middle" anchor="middle" family="微软雅黑" size="18px" weight="700" font-style="" opacity="1" y="17.8" transform="rotate(0)"><tspan id="SvgjsTspan1098" dy="22" x="65.5"><tspan id="SvgjsTspan1099" style="text-decoration:;">web服务器</tspan></tspan></text></g></g><g id="SvgjsG1100"><path id="SvgjsPath1101" d="M125 155L179 155L179 155L233 155" stroke="#ff0000" stroke-width="2" fill="none" marker-end="url(#SvgjsMarker1102)"></path></g><g id="SvgjsG1104" transform="translate(113,103)"><path id="SvgjsPath1105" d="M 0 0L 120 0L 120 40L 0 40Z" stroke="none" fill="none"></path><g id="SvgjsG1106"><text id="SvgjsText1107" font-family="微软雅黑" text-anchor="middle" font-size="18px" width="36" fill="#323232" font-weight="700" align="middle" anchor="middle" family="微软雅黑" size="18px" weight="700" font-style="" opacity="1" y="5.800000000000001" transform="rotate(0)"><tspan id="SvgjsTspan1108" dy="22" x="60"><tspan id="SvgjsTspan1109" style="text-decoration:;">请求</tspan></tspan></text></g></g><g id="SvgjsG1110" transform="translate(175.5,179)"><path id="SvgjsPath1111" d="M 0 0L 120 0L 120 40L 0 40Z" stroke="none" fill="none"></path><g id="SvgjsG1112"><text id="SvgjsText1113" font-family="微软雅黑" text-anchor="middle" font-size="18px" width="72" fill="#323232" font-weight="700" align="middle" anchor="middle" family="微软雅黑" size="18px" weight="700" font-style="" opacity="1" y="5.800000000000001" transform="rotate(0)"><tspan id="SvgjsTspan1114" dy="22" x="60"><tspan id="SvgjsTspan1115" style="text-decoration:;">接收请求</tspan></tspan></text></g></g><g id="SvgjsG1116"><path id="SvgjsPath1117" d="M298.5 187L298.5 216L298.5 216L298.5 245" stroke="#ff0000" stroke-width="2" fill="none" marker-end="url(#SvgjsMarker1118)"></path></g><g id="SvgjsG1120" transform="translate(233,245)"><path id="SvgjsPath1121" d="M 0 4Q 0 0 4 0L 127 0Q 131 0 131 4L 131 60Q 131 64 127 64L 4 64Q 0 64 0 60Z" stroke="rgba(50,50,50,1)" stroke-width="2" fill-opacity="1" fill="#ffffff"></path><g id="SvgjsG1122"><text id="SvgjsText1123" font-family="微软雅黑" text-anchor="middle" font-size="18px" width="54" fill="#323232" font-weight="700" align="middle" anchor="middle" family="微软雅黑" size="18px" weight="700" font-style="" opacity="1" y="17.8" transform="rotate(0)"><tspan id="SvgjsTspan1124" dy="22" x="65.5"><tspan id="SvgjsTspan1125" style="text-decoration:;">子进程</tspan></tspan></text></g></g><g id="SvgjsG1126" transform="translate(465,245)"><path id="SvgjsPath1127" d="M 0 4Q 0 0 4 0L 127 0Q 131 0 131 4L 131 60Q 131 64 127 64L 4 64Q 0 64 0 60Z" stroke="rgba(50,50,50,1)" stroke-width="2" fill-opacity="1" fill="#ffffff"></path><g id="SvgjsG1128"><text id="SvgjsText1129" font-family="微软雅黑" text-anchor="middle" font-size="18px" width="81" fill="#323232" font-weight="700" align="middle" anchor="middle" family="微软雅黑" size="18px" weight="700" font-style="" opacity="1" y="6.300000000000001" transform="rotate(0)"><tspan id="SvgjsTspan1130" dy="22" x="65.5"><tspan id="SvgjsTspan1131" style="text-decoration:;"> 调用程序/</tspan></tspan><tspan id="SvgjsTspan1132" dy="22" x="65.5"><tspan id="SvgjsTspan1133" style="text-decoration:;">执行程序</tspan></tspan></text></g></g><g id="SvgjsG1134"><path id="SvgjsPath1135" d="M364 277L414.5 277L414.5 277L465 277" stroke="#ff0000" stroke-width="2" fill="none" marker-end="url(#SvgjsMarker1136)"></path></g><g id="SvgjsG1138"><path id="SvgjsPath1139" d="M530.5 245L530.5 155L364 155" stroke="#0066cc" stroke-width="2" fill="none" marker-end="url(#SvgjsMarker1140)"></path></g><g id="SvgjsG1142" transform="translate(357.5,96)"><path id="SvgjsPath1143" d="M 0 0L 120 0L 120 40L 0 40Z" stroke="none" fill="none"></path><g id="SvgjsG1144"><text id="SvgjsText1145" font-family="微软雅黑" text-anchor="middle" font-size="18px" width="72" fill="#323232" font-weight="700" align="middle" anchor="middle" family="微软雅黑" size="18px" weight="700" font-style="" opacity="1" y="5.800000000000001" transform="rotate(0)"><tspan id="SvgjsTspan1146" dy="22" x="60"><tspan id="SvgjsTspan1147" style="text-decoration:;">接收内容</tspan></tspan></text></g></g><g id="SvgjsG1148" transform="translate(530.5,190)"><path id="SvgjsPath1149" d="M 0 0L 120 0L 120 40L 0 40Z" stroke="none" fill="none"></path><g id="SvgjsG1150"><text id="SvgjsText1151" font-family="微软雅黑" text-anchor="middle" font-size="18px" width="108" fill="#323232" font-weight="700" align="middle" anchor="middle" family="微软雅黑" size="18px" weight="700" font-style="" opacity="1" y="-5.699999999999999" transform="rotate(0)"><tspan id="SvgjsTspan1152" dy="22" x="60"><tspan id="SvgjsTspan1153" style="text-decoration:;">返回内容/</tspan></tspan><tspan id="SvgjsTspan1154" dy="22" x="60"><tspan id="SvgjsTspan1155" style="text-decoration:;">程序调用结束</tspan></tspan></text></g></g><g id="SvgjsG1156"><path id="SvgjsPath1157" d="M298.5 123L298.5 65L75 65L75 120" stroke="#0066cc" stroke-width="2" fill="none" marker-end="url(#SvgjsMarker1158)"></path></g><g id="SvgjsG1160" transform="translate(116,25)"><path id="SvgjsPath1161" d="M 0 0L 120 0L 120 40L 0 40Z" stroke="none" fill="none"></path><g id="SvgjsG1162"><text id="SvgjsText1163" font-family="微软雅黑" text-anchor="middle" font-size="18px" width="36" fill="#323232" font-weight="700" align="middle" anchor="middle" family="微软雅黑" size="18px" weight="700" font-style="" opacity="1" y="5.800000000000001" transform="rotate(0)"><tspan id="SvgjsTspan1164" dy="22" x="60"><tspan id="SvgjsTspan1165" style="text-decoration:;">返回</tspan></tspan></text></g></g><g id="SvgjsG1166" transform="translate(262.5,195)"><path id="SvgjsPath1167" d="M 0 0L 120 0L 120 40L 0 40Z" stroke="none" fill="none"></path><g id="SvgjsG1168"><text id="SvgjsText1169" font-family="微软雅黑" text-anchor="middle" font-size="18px" width="38" fill="#323232" font-weight="700" align="middle" anchor="middle" family="微软雅黑" size="18px" weight="700" font-style="" opacity="1" y="5.800000000000001" transform="rotate(0)"><tspan id="SvgjsTspan1170" dy="22" x="60"><tspan id="SvgjsTspan1171" style="text-decoration:;">fork</tspan></tspan></text></g></g></svg>