<svg id="SvgjsSvg1006" width="675.5" height="334" xmlns="http://www.w3.org/2000/svg" version="1.1" xmlns:xlink="http://www.w3.org/1999/xlink" xmlns:svgjs="http://svgjs.com/svgjs"><defs id="SvgjsDefs1007"><marker id="SvgjsMarker1022" markerWidth="16" markerHeight="12" refX="16" refY="6" viewBox="0 0 16 12" orient="auto" markerUnits="userSpaceOnUse"><path id="SvgjsPath1023" d="M0,2 L14,6 L0,11 L0,2" fill="#ff0000" stroke="#ff0000" stroke-width="2"></path></marker><marker id="SvgjsMarker1038" markerWidth="16" markerHeight="12" refX="16" refY="6" viewBox="0 0 16 12" orient="auto" markerUnits="userSpaceOnUse"><path id="SvgjsPath1039" d="M0,2 L14,6 L0,11 L0,2" fill="#ff0000" stroke="#ff0000" stroke-width="2"></path></marker><marker id="SvgjsMarker1056" markerWidth="16" markerHeight="12" refX="16" refY="6" viewBox="0 0 16 12" orient="auto" markerUnits="userSpaceOnUse"><path id="SvgjsPath1057" d="M0,2 L14,6 L0,11 L0,2" fill="#ff0000" stroke="#ff0000" stroke-width="2"></path></marker><marker id="SvgjsMarker1060" markerWidth="16" markerHeight="12" refX="16" refY="6" viewBox="0 0 16 12" orient="auto" markerUnits="userSpaceOnUse"><path id="SvgjsPath1061" d="M0,2 L14,6 L0,11 L0,2" fill="#0066cc" stroke="#0066cc" stroke-width="2"></path></marker><marker id="SvgjsMarker1078" markerWidth="16" markerHeight="12" refX="16" refY="6" viewBox="0 0 16 12" orient="auto" markerUnits="userSpaceOnUse"><path id="SvgjsPath1079" d="M0,2 L14,6 L0,11 L0,2" fill="#0066cc" stroke="#0066cc" stroke-width="2"></path></marker></defs><g id="SvgjsG1008" transform="translate(25,120)"><path id="SvgjsPath1009" d="M 0 4Q 0 0 4 0L 96 0Q 100 0 100 4L 100 66Q 100 70 96 70L 4 70Q 0 70 0 66Z" stroke="rgba(50,50,50,1)" stroke-width="2" fill-opacity="1" fill="#ffffff"></path><g id="SvgjsG1010"><text id="SvgjsText1011" font-family="微软雅黑" text-anchor="middle" font-size="18px" width="36" fill="#323232" font-weight="700" align="middle" anchor="middle" family="微软雅黑" size="18px" weight="700" font-style="" opacity="1" y="20.8" transform="rotate(0)"><tspan id="SvgjsTspan1012" dy="22" x="50"><tspan id="SvgjsTspan1013" style="text-decoration:;">用户</tspan></tspan></text></g></g><g id="SvgjsG1014" transform="translate(233,123)"><path id="SvgjsPath1015" d="M 0 4Q 0 0 4 0L 127 0Q 131 0 131 4L 131 60Q 131 64 127 64L 4 64Q 0 64 0 60Z" stroke="rgba(50,50,50,1)" stroke-width="2" fill-opacity="1" fill="#ffffff"></path><g id="SvgjsG1016"><text id="SvgjsText1017" font-family="微软雅黑" text-anchor="middle" font-size="18px" width="92" fill="#323232" font-weight="700" align="middle" anchor="middle" family="微软雅黑" size="18px" weight="700" font-style="" opacity="1" y="17.8" transform="rotate(0)"><tspan id="SvgjsTspan1018" dy="22" x="65.5"><tspan id="SvgjsTspan1019" style="text-decoration:;">web服务器</tspan></tspan></text></g></g><g id="SvgjsG1020"><path id="SvgjsPath1021" d="M125 155L179 155L179 155L233 155" stroke="#ff0000" stroke-width="2" fill="none" marker-end="url(#SvgjsMarker1022)"></path></g><g id="SvgjsG1024" transform="translate(113,103)"><path id="SvgjsPath1025" d="M 0 0L 120 0L 120 40L 0 40Z" stroke="none" fill="none"></path><g id="SvgjsG1026"><text id="SvgjsText1027" font-family="微软雅黑" text-anchor="middle" font-size="18px" width="36" fill="#323232" font-weight="700" align="middle" anchor="middle" family="微软雅黑" size="18px" weight="700" font-style="" opacity="1" y="5.800000000000001" transform="rotate(0)"><tspan id="SvgjsTspan1028" dy="22" x="60"><tspan id="SvgjsTspan1029" style="text-decoration:;">请求</tspan></tspan></text></g></g><g id="SvgjsG1030" transform="translate(299.5,180)"><path id="SvgjsPath1031" d="M 0 0L 120 0L 120 40L 0 40Z" stroke="none" fill="none"></path><g id="SvgjsG1032"><text id="SvgjsText1033" font-family="微软雅黑" text-anchor="middle" font-size="18px" width="72" fill="#323232" font-weight="700" align="middle" anchor="middle" family="微软雅黑" size="18px" weight="700" font-style="" opacity="1" y="5.800000000000001" transform="rotate(0)"><tspan id="SvgjsTspan1034" dy="22" x="60"><tspan id="SvgjsTspan1035" style="text-decoration:;">接收请求</tspan></tspan></text></g></g><g id="SvgjsG1036"><path id="SvgjsPath1037" d="M298.5 187L298.5 216L298.5 216L298.5 245" stroke="#ff0000" stroke-width="2" fill="none" marker-end="url(#SvgjsMarker1038)"></path></g><g id="SvgjsG1040" transform="translate(233,245)"><path id="SvgjsPath1041" d="M 0 4Q 0 0 4 0L 127 0Q 131 0 131 4L 131 60Q 131 64 127 64L 4 64Q 0 64 0 60Z" stroke="rgba(50,50,50,1)" stroke-width="2" fill-opacity="1" fill="#ffffff"></path><g id="SvgjsG1042"><text id="SvgjsText1043" font-family="微软雅黑" text-anchor="middle" font-size="18px" width="54" fill="#323232" font-weight="700" align="middle" anchor="middle" family="微软雅黑" size="18px" weight="700" font-style="" opacity="1" y="17.8" transform="rotate(0)"><tspan id="SvgjsTspan1044" dy="22" x="65.5"><tspan id="SvgjsTspan1045" style="text-decoration:;">子进程</tspan></tspan></text></g></g><g id="SvgjsG1046" transform="translate(465,245)"><path id="SvgjsPath1047" d="M 0 4Q 0 0 4 0L 127 0Q 131 0 131 4L 131 60Q 131 64 127 64L 4 64Q 0 64 0 60Z" stroke="rgba(50,50,50,1)" stroke-width="2" fill-opacity="1" fill="#ffffff"></path><g id="SvgjsG1048"><text id="SvgjsText1049" font-family="微软雅黑" text-anchor="middle" font-size="18px" width="81" fill="#323232" font-weight="700" align="middle" anchor="middle" family="微软雅黑" size="18px" weight="700" font-style="" opacity="1" y="6.300000000000001" transform="rotate(0)"><tspan id="SvgjsTspan1050" dy="22" x="65.5"><tspan id="SvgjsTspan1051" style="text-decoration:;"> 调用程序/</tspan></tspan><tspan id="SvgjsTspan1052" dy="22" x="65.5"><tspan id="SvgjsTspan1053" style="text-decoration:;">执行程序</tspan></tspan></text></g></g><g id="SvgjsG1054"><path id="SvgjsPath1055" d="M364 277L414.5 277L414.5 277L465 277" stroke="#ff0000" stroke-width="2" fill="none" marker-end="url(#SvgjsMarker1056)"></path></g><g id="SvgjsG1058"><path id="SvgjsPath1059" d="M530.5 245L530.5 155L364 155" stroke="#0066cc" stroke-width="2" fill="none" marker-end="url(#SvgjsMarker1060)"></path></g><g id="SvgjsG1062" transform="translate(357.5,96)"><path id="SvgjsPath1063" d="M 0 0L 120 0L 120 40L 0 40Z" stroke="none" fill="none"></path><g id="SvgjsG1064"><text id="SvgjsText1065" font-family="微软雅黑" text-anchor="middle" font-size="18px" width="72" fill="#323232" font-weight="700" align="middle" anchor="middle" family="微软雅黑" size="18px" weight="700" font-style="" opacity="1" y="5.800000000000001" transform="rotate(0)"><tspan id="SvgjsTspan1066" dy="22" x="60"><tspan id="SvgjsTspan1067" style="text-decoration:;">接收内容</tspan></tspan></text></g></g><g id="SvgjsG1068" transform="translate(530.5,190)"><path id="SvgjsPath1069" d="M 0 0L 120 0L 120 40L 0 40Z" stroke="none" fill="none"></path><g id="SvgjsG1070"><text id="SvgjsText1071" font-family="微软雅黑" text-anchor="middle" font-size="18px" width="108" fill="#323232" font-weight="700" align="middle" anchor="middle" family="微软雅黑" size="18px" weight="700" font-style="" opacity="1" y="-5.699999999999999" transform="rotate(0)"><tspan id="SvgjsTspan1072" dy="22" x="60"><tspan id="SvgjsTspan1073" style="text-decoration:;">返回内容/</tspan></tspan><tspan id="SvgjsTspan1074" dy="22" x="60"><tspan id="SvgjsTspan1075" style="text-decoration:;">程序调用结束</tspan></tspan></text></g></g><g id="SvgjsG1076"><path id="SvgjsPath1077" d="M298.5 123L298.5 65L75 65L75 120" stroke="#0066cc" stroke-width="2" fill="none" marker-end="url(#SvgjsMarker1078)"></path></g><g id="SvgjsG1080" transform="translate(116,25)"><path id="SvgjsPath1081" d="M 0 0L 120 0L 120 40L 0 40Z" stroke="none" fill="none"></path><g id="SvgjsG1082"><text id="SvgjsText1083" font-family="微软雅黑" text-anchor="middle" font-size="18px" width="36" fill="#323232" font-weight="700" align="middle" anchor="middle" family="微软雅黑" size="18px" weight="700" font-style="" opacity="1" y="5.800000000000001" transform="rotate(0)"><tspan id="SvgjsTspan1084" dy="22" x="60"><tspan id="SvgjsTspan1085" style="text-decoration:;">返回</tspan></tspan></text></g></g></svg>