<svg id="SvgjsSvg1006" width="976.5" height="408" xmlns="http://www.w3.org/2000/svg" version="1.1" xmlns:xlink="http://www.w3.org/1999/xlink" xmlns:svgjs="http://svgjs.com/svgjs"><defs id="SvgjsDefs1007"><marker id="SvgjsMarker1036" markerWidth="16" markerHeight="12" refX="16" refY="6" viewBox="0 0 16 12" orient="auto" markerUnits="userSpaceOnUse"><path id="SvgjsPath1037" d="M0,2 L14,6 L0,11 L0,2" fill="#0066cc" stroke="#0066cc" stroke-width="2"></path></marker><marker id="SvgjsMarker1084" markerWidth="16" markerHeight="12" refX="16" refY="6" viewBox="0 0 16 12" orient="auto" markerUnits="userSpaceOnUse"><path id="SvgjsPath1085" d="M0,2 L14,6 L0,11 L0,2" fill="#ff0000" stroke="#ff0000" stroke-width="2"></path></marker><marker id="SvgjsMarker1088" markerWidth="16" markerHeight="12" refX="16" refY="6" viewBox="0 0 16 12" orient="auto" markerUnits="userSpaceOnUse"><path id="SvgjsPath1089" d="M0,2 L14,6 L0,11 L0,2" fill="#ff0000" stroke="#ff0000" stroke-width="2"></path></marker><marker id="SvgjsMarker1092" markerWidth="16" markerHeight="12" refX="16" refY="6" viewBox="0 0 16 12" orient="auto" markerUnits="userSpaceOnUse"><path id="SvgjsPath1093" d="M0,2 L14,6 L0,11 L0,2" fill="#ff0000" stroke="#ff0000" stroke-width="2"></path></marker><marker id="SvgjsMarker1102" markerWidth="16" markerHeight="12" refX="16" refY="6" viewBox="0 0 16 12" orient="auto" markerUnits="userSpaceOnUse"><path id="SvgjsPath1103" d="M0,2 L14,6 L0,11 L0,2" fill="#66cc00" stroke="#66cc00" stroke-width="2"></path></marker><marker id="SvgjsMarker1106" markerWidth="16" markerHeight="12" refX="16" refY="6" viewBox="0 0 16 12" orient="auto" markerUnits="userSpaceOnUse"><path id="SvgjsPath1107" d="M0,2 L14,6 L0,11 L0,2" fill="#66cc00" stroke="#66cc00" stroke-width="2"></path></marker><marker id="SvgjsMarker1110" markerWidth="16" markerHeight="12" refX="16" refY="6" viewBox="0 0 16 12" orient="auto" markerUnits="userSpaceOnUse"><path id="SvgjsPath1111" d="M0,2 L14,6 L0,11 L0,2" fill="#66cc00" stroke="#66cc00" stroke-width="2"></path></marker><marker id="SvgjsMarker1114" markerWidth="16" markerHeight="12" refX="16" refY="6" viewBox="0 0 16 12" orient="auto" markerUnits="userSpaceOnUse"><path id="SvgjsPath1115" d="M0,2 L14,6 L0,11 L0,2" fill="#0066cc" stroke="#0066cc" stroke-width="2"></path></marker></defs><g id="SvgjsG1008" transform="translate(25,154)"><path id="SvgjsPath1009" d="M 0 4Q 0 0 4 0L 96 0Q 100 0 100 4L 100 66Q 100 70 96 70L 4 70Q 0 70 0 66Z" stroke="rgba(50,50,50,1)" stroke-width="2" fill-opacity="1" fill="#ffffff"></path><g id="SvgjsG1010"><text id="SvgjsText1011" font-family="微软雅黑" text-anchor="middle" font-size="18px" width="36" fill="#323232" font-weight="700" align="middle" anchor="middle" family="微软雅黑" size="18px" weight="700" font-style="" opacity="1" y="20.8" transform="rotate(0)"><tspan id="SvgjsTspan1012" dy="22" x="50"><tspan id="SvgjsTspan1013" style="text-decoration:;">用户</tspan></tspan></text></g></g><g id="SvgjsG1014" transform="translate(367,157)"><path id="SvgjsPath1015" d="M 0 4Q 0 0 4 0L 127 0Q 131 0 131 4L 131 60Q 131 64 127 64L 4 64Q 0 64 0 60Z" stroke="rgba(50,50,50,1)" stroke-width="2" fill-opacity="1" fill="#ffffff"></path><g id="SvgjsG1016"><text id="SvgjsText1017" font-family="微软雅黑" text-anchor="middle" font-size="18px" width="68" fill="#323232" font-weight="700" align="middle" anchor="middle" family="微软雅黑" size="18px" weight="700" font-style="" opacity="1" y="17.8" transform="rotate(0)"><tspan id="SvgjsTspan1018" dy="22" x="65.5"><tspan id="SvgjsTspan1019" style="text-decoration:;">fast-cgi</tspan></tspan></text></g></g><g id="SvgjsG1020" transform="translate(93,136)"><path id="SvgjsPath1021" d="M 0 0L 120 0L 120 40L 0 40Z" stroke="none" fill="none"></path><g id="SvgjsG1022"><text id="SvgjsText1023" font-family="微软雅黑" text-anchor="middle" font-size="18px" width="36" fill="#323232" font-weight="700" align="middle" anchor="middle" family="微软雅黑" size="18px" weight="700" font-style="" opacity="1" y="5.800000000000001" transform="rotate(0)"><tspan id="SvgjsTspan1024" dy="22" x="60"><tspan id="SvgjsTspan1025" style="text-decoration:;">请求</tspan></tspan></text></g></g><g id="SvgjsG1026" transform="translate(748,279)"><path id="SvgjsPath1027" d="M 0 4Q 0 0 4 0L 127 0Q 131 0 131 4L 131 60Q 131 64 127 64L 4 64Q 0 64 0 60Z" stroke="rgba(50,50,50,1)" stroke-width="2" fill-opacity="1" fill="#ffffff"></path><g id="SvgjsG1028"><text id="SvgjsText1029" font-family="微软雅黑" text-anchor="middle" font-size="18px" width="81" fill="#323232" font-weight="700" align="middle" anchor="middle" family="微软雅黑" size="18px" weight="700" font-style="" opacity="1" y="6.300000000000001" transform="rotate(0)"><tspan id="SvgjsTspan1030" dy="22" x="65.5"><tspan id="SvgjsTspan1031" style="text-decoration:;"> 调用程序/</tspan></tspan><tspan id="SvgjsTspan1032" dy="22" x="65.5"><tspan id="SvgjsTspan1033" style="text-decoration:;">执行程序</tspan></tspan></text></g></g><g id="SvgjsG1034"><path id="SvgjsPath1035" d="M813.5 279L813.5 189L498 189" stroke="#0066cc" stroke-width="2" fill="none" marker-end="url(#SvgjsMarker1036)"></path></g><g id="SvgjsG1038" transform="translate(491.5,130)"><path id="SvgjsPath1039" d="M 0 0L 120 0L 120 40L 0 40Z" stroke="none" fill="none"></path><g id="SvgjsG1040"><text id="SvgjsText1041" font-family="微软雅黑" text-anchor="middle" font-size="18px" width="72" fill="#323232" font-weight="700" align="middle" anchor="middle" family="微软雅黑" size="18px" weight="700" font-style="" opacity="1" y="5.800000000000001" transform="rotate(0)"><tspan id="SvgjsTspan1042" dy="22" x="60"><tspan id="SvgjsTspan1043" style="text-decoration:;">接收内容</tspan></tspan></text></g></g><g id="SvgjsG1044" transform="translate(831.5,209)"><path id="SvgjsPath1045" d="M 0 0L 120 0L 120 40L 0 40Z" stroke="none" fill="none"></path><g id="SvgjsG1046"><text id="SvgjsText1047" font-family="微软雅黑" text-anchor="middle" font-size="18px" width="108" fill="#323232" font-weight="700" align="middle" anchor="middle" family="微软雅黑" size="18px" weight="700" font-style="" opacity="1" y="-5.699999999999999" transform="rotate(0)"><tspan id="SvgjsTspan1048" dy="22" x="60"><tspan id="SvgjsTspan1049" style="text-decoration:;">返回内容/</tspan></tspan><tspan id="SvgjsTspan1050" dy="22" x="60"><tspan id="SvgjsTspan1051" style="text-decoration:;">程序调用结束</tspan></tspan></text></g></g><g id="SvgjsG1052" transform="translate(448,25)"><path id="SvgjsPath1053" d="M 0 0L 147 0L 147 37L 0 37Z" stroke="none" fill="none"></path><g id="SvgjsG1054"><text id="SvgjsText1055" font-family="微软雅黑" text-anchor="middle" font-size="18px" width="126" fill="#323232" font-weight="700" align="middle" anchor="middle" family="微软雅黑" size="18px" weight="700" font-style="" opacity="1" y="4.300000000000001" transform="rotate(0)"><tspan id="SvgjsTspan1056" dy="22" x="73.5"><tspan id="SvgjsTspan1057" style="text-decoration:;">交给空闲子进程</tspan></tspan></text></g></g><g id="SvgjsG1058" transform="translate(431.5,218)"><path id="SvgjsPath1059" d="M 0 0L 120 0L 120 40L 0 40Z" stroke="none" fill="none"></path><g id="SvgjsG1060"><text id="SvgjsText1061" font-family="微软雅黑" text-anchor="middle" font-size="18px" width="96" fill="#323232" font-weight="700" align="middle" anchor="middle" family="微软雅黑" size="18px" weight="700" font-style="" opacity="1" y="5.800000000000001" transform="rotate(0)"><tspan id="SvgjsTspan1062" dy="22" x="60"><tspan id="SvgjsTspan1063" style="text-decoration:;">① fork n个</tspan></tspan></text></g></g><g id="SvgjsG1064" transform="translate(293,286)"><path id="SvgjsPath1065" d="M 0 4Q 0 0 4 0L 73 0Q 77 0 77 4L 77 46Q 77 50 73 50L 4 50Q 0 50 0 46Z" stroke="rgba(50,50,50,1)" stroke-width="2" fill-opacity="1" fill="#ffffff"></path><g id="SvgjsG1066"><text id="SvgjsText1067" font-family="微软雅黑" text-anchor="middle" font-size="18px" width="54" fill="#323232" font-weight="700" align="middle" anchor="middle" family="微软雅黑" size="18px" weight="700" font-style="" opacity="1" y="10.8" transform="rotate(0)"><tspan id="SvgjsTspan1068" dy="22" x="38.5"><tspan id="SvgjsTspan1069" style="text-decoration:;">子进程</tspan></tspan></text></g></g><g id="SvgjsG1070" transform="translate(498,286)"><path id="SvgjsPath1071" d="M 0 4Q 0 0 4 0L 73 0Q 77 0 77 4L 77 46Q 77 50 73 50L 4 50Q 0 50 0 46Z" stroke="rgba(50,50,50,1)" stroke-width="2" fill-opacity="1" fill="#ffffff"></path><g id="SvgjsG1072"><text id="SvgjsText1073" font-family="微软雅黑" text-anchor="middle" font-size="18px" width="54" fill="#323232" font-weight="700" align="middle" anchor="middle" family="微软雅黑" size="18px" weight="700" font-style="" opacity="1" y="10.8" transform="rotate(0)"><tspan id="SvgjsTspan1074" dy="22" x="38.5"><tspan id="SvgjsTspan1075" style="text-decoration:;">子进程</tspan></tspan></text></g></g><g id="SvgjsG1076" transform="translate(394,286)"><path id="SvgjsPath1077" d="M 0 4Q 0 0 4 0L 73 0Q 77 0 77 4L 77 46Q 77 50 73 50L 4 50Q 0 50 0 46Z" stroke="rgba(50,50,50,1)" stroke-width="2" fill-opacity="1" fill="#ffffff"></path><g id="SvgjsG1078"><text id="SvgjsText1079" font-family="微软雅黑" text-anchor="middle" font-size="18px" width="54" fill="#323232" font-weight="700" align="middle" anchor="middle" family="微软雅黑" size="18px" weight="700" font-style="" opacity="1" y="10.8" transform="rotate(0)"><tspan id="SvgjsTspan1080" dy="22" x="38.5"><tspan id="SvgjsTspan1081" style="text-decoration:;">子进程</tspan></tspan></text></g></g><g id="SvgjsG1082"><path id="SvgjsPath1083" d="M432.5 221L432.5 253.5L432.5 253.5L432.5 286" stroke="#ff0000" stroke-width="2" fill="none" marker-end="url(#SvgjsMarker1084)"></path></g><g id="SvgjsG1086"><path id="SvgjsPath1087" d="M432.5 221L432.5 253.5L536.5 253.5L536.5 286" stroke="#ff0000" stroke-width="2" fill="none" marker-end="url(#SvgjsMarker1088)"></path></g><g id="SvgjsG1090"><path id="SvgjsPath1091" d="M432.5 221L432.5 253.5L331.5 253.5L331.5 286" stroke="#ff0000" stroke-width="2" fill="none" marker-end="url(#SvgjsMarker1092)"></path></g><g id="SvgjsG1094" transform="translate(187,157)"><path id="SvgjsPath1095" d="M 0 4Q 0 0 4 0L 127 0Q 131 0 131 4L 131 60Q 131 64 127 64L 4 64Q 0 64 0 60Z" stroke="rgba(50,50,50,1)" stroke-width="2" fill-opacity="1" fill="#ffffff"></path><g id="SvgjsG1096"><text id="SvgjsText1097" font-family="微软雅黑" text-anchor="middle" font-size="18px" width="92" fill="#323232" font-weight="700" align="middle" anchor="middle" family="微软雅黑" size="18px" weight="700" font-style="" opacity="1" y="17.8" transform="rotate(0)"><tspan id="SvgjsTspan1098" dy="22" x="65.5"><tspan id="SvgjsTspan1099" style="text-decoration:;">web服务器</tspan></tspan></text></g></g><g id="SvgjsG1100"><path id="SvgjsPath1101" d="M125 189L156 189L156 189L187 189" stroke="#66cc00" stroke-width="2" fill="none" marker-end="url(#SvgjsMarker1102)"></path></g><g id="SvgjsG1104"><path id="SvgjsPath1105" d="M318 189L342.5 189L342.5 189L367 189" stroke="#66cc00" stroke-width="2" fill="none" marker-end="url(#SvgjsMarker1106)"></path></g><g id="SvgjsG1108"><path id="SvgjsPath1109" d="M432.5 157L432.5 60L605 60L605 311L575 311" stroke="#66cc00" stroke-width="2" fill="none" marker-end="url(#SvgjsMarker1110)"></path></g><g id="SvgjsG1112"><path id="SvgjsPath1113" d="M575 311L661.5 311L661.5 311L748 311" stroke="#0066cc" stroke-width="2" fill="none" marker-end="url(#SvgjsMarker1114)"></path></g><g id="SvgjsG1116" transform="translate(480.5,343)"><path id="SvgjsPath1117" d="M 0 0L 120 0L 120 40L 0 40Z" stroke="none" fill="none"></path><g id="SvgjsG1118"><text id="SvgjsText1119" font-family="微软雅黑" text-anchor="middle" font-size="18px" width="108" fill="#3399ff" font-weight="700" align="middle" anchor="middle" family="微软雅黑" size="18px" weight="700" font-style="" opacity="1" y="-5.699999999999999" transform="rotate(0)"><tspan id="SvgjsTspan1120" dy="22" x="60"><tspan id="SvgjsTspan1121" style="text-decoration:;">处理完成并变</tspan></tspan><tspan id="SvgjsTspan1122" dy="22" x="60"><tspan id="SvgjsTspan1123" style="text-decoration:;">成空闲状态</tspan></tspan></text></g></g></svg>