<svg id="SvgjsSvg1241" width="940.234375" height="500.984375" xmlns="http://www.w3.org/2000/svg" version="1.1" xmlns:xlink="http://www.w3.org/1999/xlink" xmlns:svgjs="http://svgjs.com/svgjs"><defs id="SvgjsDefs1242"><marker id="SvgjsMarker1257" markerWidth="16" markerHeight="12" refX="16" refY="6" viewBox="0 0 16 12" orient="auto" markerUnits="userSpaceOnUse"><path id="SvgjsPath1258" d="M0,2 L14,6 L0,11 L0,2" fill="#323232" stroke="#323232" stroke-width="2"></path></marker><marker id="SvgjsMarker1275" markerWidth="16" markerHeight="12" refX="16" refY="6" viewBox="0 0 16 12" orient="auto" markerUnits="userSpaceOnUse"><path id="SvgjsPath1276" d="M0,2 L14,6 L0,11 L0,2" fill="#323232" stroke="#323232" stroke-width="2"></path></marker><marker id="SvgjsMarker1291" markerWidth="16" markerHeight="12" refX="16" refY="6" viewBox="0 0 16 12" orient="auto" markerUnits="userSpaceOnUse"><path id="SvgjsPath1292" d="M0,2 L14,6 L0,11 L0,2" fill="#323232" stroke="#323232" stroke-width="2"></path></marker><marker id="SvgjsMarker1295" markerWidth="16" markerHeight="12" refX="16" refY="6" viewBox="0 0 16 12" orient="auto" markerUnits="userSpaceOnUse"><path id="SvgjsPath1296" d="M0,2 L14,6 L0,11 L0,2" fill="#323232" stroke="#323232" stroke-width="2"></path></marker><marker id="SvgjsMarker1305" markerWidth="16" markerHeight="12" refX="16" refY="6" viewBox="0 0 16 12" orient="auto" markerUnits="userSpaceOnUse"><path id="SvgjsPath1306" d="M0,2 L14,6 L0,11 L0,2" fill="#323232" stroke="#323232" stroke-width="2"></path></marker><marker id="SvgjsMarker1323" markerWidth="16" markerHeight="12" refX="16" refY="6" viewBox="0 0 16 12" orient="auto" markerUnits="userSpaceOnUse"><path id="SvgjsPath1324" d="M0,2 L14,6 L0,11 L0,2" fill="#323232" stroke="#323232" stroke-width="2"></path></marker><marker id="SvgjsMarker1333" markerWidth="16" markerHeight="12" refX="16" refY="6" viewBox="0 0 16 12" orient="auto" markerUnits="userSpaceOnUse"><path id="SvgjsPath1334" d="M0,2 L14,6 L0,11 L0,2" fill="#323232" stroke="#323232" stroke-width="2"></path></marker><marker id="SvgjsMarker1373" markerWidth="16" markerHeight="12" refX="16" refY="6" viewBox="0 0 16 12" orient="auto" markerUnits="userSpaceOnUse"><path id="SvgjsPath1374" d="M0,2 L14,6 L0,11 L0,2" fill="#323232" stroke="#323232" stroke-width="2"></path></marker><marker id="SvgjsMarker1389" markerWidth="16" markerHeight="12" refX="16" refY="6" viewBox="0 0 16 12" orient="auto" markerUnits="userSpaceOnUse"><path id="SvgjsPath1390" d="M0,2 L14,6 L0,11 L0,2" fill="#323232" stroke="#323232" stroke-width="2"></path></marker><marker id="SvgjsMarker1413" markerWidth="16" markerHeight="12" refX="16" refY="6" viewBox="0 0 16 12" orient="auto" markerUnits="userSpaceOnUse"><path id="SvgjsPath1414" d="M0,2 L14,6 L0,11 L0,2" fill="#323232" stroke="#323232" stroke-width="2"></path></marker><marker id="SvgjsMarker1429" markerWidth="16" markerHeight="12" refX="16" refY="6" viewBox="0 0 16 12" orient="auto" markerUnits="userSpaceOnUse"><path id="SvgjsPath1430" d="M0,2 L14,6 L0,11 L0,2" fill="#323232" stroke="#323232" stroke-width="2"></path></marker><marker id="SvgjsMarker1445" markerWidth="16" markerHeight="12" refX="16" refY="6" viewBox="0 0 16 12" orient="auto" markerUnits="userSpaceOnUse"><path id="SvgjsPath1446" d="M0,2 L14,6 L0,11 L0,2" fill="#323232" stroke="#323232" stroke-width="2"></path></marker><marker id="SvgjsMarker1455" markerWidth="16" markerHeight="12" refX="16" refY="6" viewBox="0 0 16 12" orient="auto" markerUnits="userSpaceOnUse"><path id="SvgjsPath1456" d="M0,2 L14,6 L0,11 L0,2" fill="#323232" stroke="#323232" stroke-width="2"></path></marker><marker id="SvgjsMarker1473" markerWidth="16" markerHeight="12" refX="16" refY="6" viewBox="0 0 16 12" orient="auto" markerUnits="userSpaceOnUse"><path id="SvgjsPath1474" d="M0,2 L14,6 L0,11 L0,2" fill="#323232" stroke="#323232" stroke-width="2"></path></marker></defs><g id="SvgjsG1243" transform="translate(164.4375,87.6927083333332)"><path id="SvgjsPath1244" d="M 0 4Q 0 0 4 0L 96.97927665710449 0Q 100.97927665710449 0 100.97927665710449 4L 100.97927665710449 30.875000000000085Q 100.97927665710449 34.875000000000085 96.97927665710449 34.875000000000085L 4 34.875000000000085Q 0 34.875000000000085 0 30.875000000000085Z" stroke="rgba(50,50,50,1)" stroke-width="2" fill-opacity="1" fill="#ffffff"></path><g id="SvgjsG1245"><text id="SvgjsText1246" font-family="微软雅黑" text-anchor="middle" font-size="13px" width="73" fill="#323232" font-weight="700" align="middle" anchor="middle" family="微软雅黑" size="13px" weight="700" font-style="" opacity="1" y="7.4875000000000425" transform="rotate(0)"><tspan id="SvgjsTspan1247" dy="16" x="50.5"><tspan id="SvgjsTspan1248" style="text-decoration:;">Web 服务器</tspan></tspan></text></g></g><g id="SvgjsG1249" transform="translate(155.11496178805828,25.005208333333144)"><path id="SvgjsPath1250" d="M 0 0L 120 0L 120 40L 0 40Z" stroke="none" fill="none"></path><g id="SvgjsG1251"><text id="SvgjsText1252" font-family="微软雅黑" text-anchor="middle" font-size="17px" width="34" fill="#323232" font-weight="400" align="middle" anchor="middle" family="微软雅黑" size="17px" weight="400" font-style="" opacity="1" y="6.95" transform="rotate(0)"><tspan id="SvgjsTspan1253" dy="21" x="60"><tspan id="SvgjsTspan1254" style="text-decoration:;">请求</tspan></tspan></text></g></g><g id="SvgjsG1255"><path id="SvgjsPath1256" d="M215.11496178805828 65.00520833333314L215.11496178805828 76.34895833333317L214.92713832855225 76.34895833333317L214.92713832855225 87.6927083333332" stroke="#323232" stroke-width="2" fill="none" marker-end="url(#SvgjsMarker1257)"></path></g><g id="SvgjsG1259" transform="translate(25.003874753291342,39.317708333333144)"><path id="SvgjsPath1260" d="M 0 0L 120 0L 120 40L 0 40Z" stroke="none" fill="none"></path><g id="SvgjsG1261"><text id="SvgjsText1262" font-family="微软雅黑" text-anchor="middle" font-size="16px" width="118" fill="#323232" font-weight="400" align="middle" anchor="middle" family="微软雅黑" size="16px" weight="400" font-style="" opacity="1" y="7.6" transform="rotate(0)"><tspan id="SvgjsTspan1263" dy="20" x="60"><tspan id="SvgjsTspan1264" style="text-decoration:;">Laravel生命周期</tspan></tspan></text></g></g><g id="SvgjsG1265" transform="translate(132.66685032844555,155.35937499999983)"><path id="SvgjsPath1266" d="M 0 4Q 0 0 4 0L 160.66125488281227 0Q 164.66125488281227 0 164.66125488281227 4L 164.66125488281227 39.75Q 164.66125488281227 43.75 160.66125488281227 43.75L 4 43.75Q 0 43.75 0 39.75Z" stroke="rgba(50,50,50,1)" stroke-width="2" fill-opacity="1" fill="#ffffff"></path><g id="SvgjsG1267"><text id="SvgjsText1268" font-family="微软雅黑" text-anchor="middle" font-size="13px" width="112" fill="#323232" font-weight="700" align="middle" anchor="middle" family="微软雅黑" size="13px" weight="700" font-style="" opacity="1" y="3.925" transform="rotate(0)"><tspan id="SvgjsTspan1269" dy="16" x="82.5"><tspan id="SvgjsTspan1270" style="text-decoration:;">入口文件</tspan></tspan><tspan id="SvgjsTspan1271" dy="16" x="82.5"><tspan id="SvgjsTspan1272" style="text-decoration:;">public/index.php</tspan></tspan></text></g></g><g id="SvgjsG1273"><path id="SvgjsPath1274" d="M214.92713832855225 122.56770833333331L214.92713832855225 138.96354166666657L214.99747776985168 138.96354166666657L214.99747776985168 155.35937499999983" stroke="#323232" stroke-width="2" fill="none" marker-end="url(#SvgjsMarker1275)"></path></g><g id="SvgjsG1277" transform="translate(132.5965108871461,235.3593749999999)"><path id="SvgjsPath1278" d="M 0 4Q 0 0 4 0L 160.66125488281227 0Q 164.66125488281227 0 164.66125488281227 4L 164.66125488281227 39.75Q 164.66125488281227 43.75 160.66125488281227 43.75L 4 43.75Q 0 43.75 0 39.75Z" stroke="rgba(50,50,50,1)" stroke-width="2" fill-opacity="1" fill="#ffffff"></path><g id="SvgjsG1279"><text id="SvgjsText1280" font-family="微软雅黑" text-anchor="middle" font-size="13px" width="131" fill="#323232" font-weight="700" align="middle" anchor="middle" family="微软雅黑" size="13px" weight="700" font-style="" opacity="1" y="11.925" transform="rotate(0)"><tspan id="SvgjsTspan1281" dy="16" x="82.5"><tspan id="SvgjsTspan1282" style="text-decoration:;">HTTP / Console 内核</tspan></tspan></text></g></g><g id="SvgjsG1283" transform="translate(350.6699218749998,184.3950195312499)"><path id="SvgjsPath1284" d="M 0 0L 303.1249999999999 0L 303.1249999999999 35.625L 0 35.625Z" stroke="none" fill="none"></path><g id="SvgjsG1285"><text id="SvgjsText1286" font-family="微软雅黑" text-anchor="middle" font-size="13px" width="276" fill="#323232" font-weight="400" align="middle" anchor="middle" family="微软雅黑" size="13px" weight="400" font-style="" opacity="1" y="7.8625" transform="rotate(0)"><tspan id="SvgjsTspan1287" dy="16" x="152"><tspan id="SvgjsTspan1288" style="text-decoration:;">继承了 Illuminate\Foundation\Http\Kernel 类</tspan></tspan></text></g></g><g id="SvgjsG1289"><path id="SvgjsPath1290" d="M297.25776576995827 257.2343749999999L323.963843822479 257.2343749999999L323.963843822479 202.2075195312499L350.6699218749998 202.2075195312499" stroke="#323232" stroke-width="2" fill="none" marker-end="url(#SvgjsMarker1291)"></path></g><g id="SvgjsG1293"><path id="SvgjsPath1294" d="M297.3281052112577 177.23437499999983L322.9980549340544 177.23437499999983L322.9980549340544 89.38384723663324L348.66800465685094 89.38384723663324" stroke="#323232" stroke-width="2" fill="none" marker-end="url(#SvgjsMarker1295)"></path></g><g id="SvgjsG1297" transform="translate(715.287088394165,190.07564407587034)"><path id="SvgjsPath1298" d="M 0 0L 150.52246093749932 0L 150.52246093749932 24.36492919921875L 0 24.36492919921875Z" stroke="rgba(50,50,50,1)" stroke-width="2" fill-opacity="1" fill="#ffffff"></path><g id="SvgjsG1299"><text id="SvgjsText1300" font-family="微软雅黑" text-anchor="middle" font-size="13px" width="123" fill="#ff6666" font-weight="700" align="middle" anchor="middle" family="微软雅黑" size="13px" weight="700" font-style="" opacity="1" y="2.232464599609375" transform="rotate(0)"><tspan id="SvgjsTspan1301" dy="16" x="75.5"><tspan id="SvgjsTspan1302" style="text-decoration:;">bootstrappers 数组</tspan></tspan></text></g></g><g id="SvgjsG1303"><path id="SvgjsPath1304" d="M653.7949218749997 202.2075195312499L684.5410051345823 202.2075195312499L684.5410051345823 202.25810867547972L715.287088394165 202.25810867547972" stroke="#323232" stroke-width="2" fill="none" marker-end="url(#SvgjsMarker1305)"></path></g><g id="SvgjsG1307" transform="translate(669.2343749999998,221.7498720884322)"><path id="SvgjsPath1308" d="M 0 0L 246.25 0L 246.25 43.75L 0 43.75Z" stroke="none" fill="none"></path><g id="SvgjsG1309"><text id="SvgjsText1310" font-family="微软雅黑" text-anchor="middle" font-size="13px" width="242" fill="#323232" font-weight="700" align="middle" anchor="middle" family="微软雅黑" size="13px" weight="700" font-style="" opacity="1" y="3.925" transform="rotate(0)"><tspan id="SvgjsTspan1311" dy="16" x="123.5"><tspan id="SvgjsTspan1312" style="text-decoration:;">配置了错误处理， 日志， 检测应用环境，</tspan></tspan><tspan id="SvgjsTspan1313" dy="16" x="123.5"><tspan id="SvgjsTspan1314" style="text-decoration:;">以及其它在请求被处理前需要执行的任务</tspan></tspan></text></g></g><g id="SvgjsG1315" transform="translate(349.93143856743677,216.08416748046864)"><path id="SvgjsPath1316" d="M 0 0L 104.29687499999977 0L 104.29687499999977 33.828125L 0 33.828125Z" stroke="rgba(50,50,50,1)" stroke-width="2" fill-opacity="1" fill="#ffffff"></path><g id="SvgjsG1317"><text id="SvgjsText1318" font-family="微软雅黑" text-anchor="middle" font-size="13px" width="76" fill="#323232" font-weight="400" align="middle" anchor="middle" family="微软雅黑" size="13px" weight="400" font-style="" opacity="1" y="6.9640625" transform="rotate(0)"><tspan id="SvgjsTspan1319" dy="16" x="52.5"><tspan id="SvgjsTspan1320" style="text-decoration:;">HTTP 中间件</tspan></tspan></text></g></g><g id="SvgjsG1321"><path id="SvgjsPath1322" d="M297.25776576995827 257.2343749999999L323.5946021686975 257.2343749999999L323.5946021686975 232.99822998046864L349.93143856743677 232.99822998046864" stroke="#323232" stroke-width="2" fill="none" marker-end="url(#SvgjsMarker1323)"></path></g><g id="SvgjsG1325" transform="translate(246.8124999999999,204.73437499999977)"><path id="SvgjsPath1326" d="M 0 0L 120 0L 120 40L 0 40Z" stroke="none" fill="none"></path><g id="SvgjsG1327"><text id="SvgjsText1328" font-family="微软雅黑" text-anchor="middle" font-size="13px" width="26" fill="#323232" font-weight="400" align="middle" anchor="middle" family="微软雅黑" size="13px" weight="400" font-style="" opacity="1" y="10.05" transform="rotate(0)"><tspan id="SvgjsTspan1329" dy="16" x="60"><tspan id="SvgjsTspan1330" style="text-decoration:;">定义</tspan></tspan></text></g></g><g id="SvgjsG1331"><path id="SvgjsPath1332" d="M214.99747776985168 199.10937499999983L214.99747776985168 217.2343749999999L214.92713832855225 217.2343749999999L214.92713832855225 235.3593749999999" stroke="#323232" stroke-width="2" fill="none" marker-end="url(#SvgjsMarker1333)"></path></g><g id="SvgjsG1335" transform="translate(453.85656470991694,213.88507556915272)"><path id="SvgjsPath1336" d="M 0 0L 120 0L 120 40L 0 40Z" stroke="none" fill="none"></path><g id="SvgjsG1337"><text id="SvgjsText1338" font-family="微软雅黑" text-anchor="middle" font-size="13px" width="91" fill="#323232" font-weight="400" align="middle" anchor="middle" family="微软雅黑" size="13px" weight="400" font-style="" opacity="1" y="10.05" transform="rotate(0)"><tspan id="SvgjsTspan1339" dy="16" x="60"><tspan id="SvgjsTspan1340" style="text-decoration:;"> 验证 CSRF 令牌 </tspan></tspan></text></g></g><g id="SvgjsG1341" transform="translate(348.5399167827235,106.22798556787887)"><path id="SvgjsPath1342" d="M 0 0L 110.72753906249977 0L 110.72753906249977 28.241045534610976L 0 28.241045534610976Z" stroke="rgba(50,50,50,1)" stroke-width="2" fill-opacity="1" fill="#ffffff"></path><g id="SvgjsG1343"><text id="SvgjsText1344" font-family="微软雅黑" text-anchor="middle" font-size="13px" width="52" fill="#ff6666" font-weight="700" align="middle" anchor="middle" family="微软雅黑" size="13px" weight="700" font-style="" opacity="1" y="4.170522767305488" transform="rotate(0)"><tspan id="SvgjsTspan1345" dy="16" x="55.5"><tspan id="SvgjsTspan1346" style="text-decoration:;">服务容器</tspan></tspan></text></g></g><g id="SvgjsG1347" transform="translate(335.6894531250001,143.39579050242878)"><path id="SvgjsPath1348" d="M 0 0L 185.703125 0L 185.703125 37.499999999999986L 0 37.499999999999986Z" stroke="none" fill="none"></path><g id="SvgjsG1349"><text id="SvgjsText1350" font-family="微软雅黑" text-anchor="middle" font-size="13px" width="169" fill="#ff0000" font-weight="700" align="middle" anchor="middle" family="微软雅黑" size="13px" weight="700" font-style="" opacity="1" y="8.799999999999994" transform="rotate(0)"><tspan id="SvgjsTspan1351" dy="16" x="93"><tspan id="SvgjsTspan1352" style="text-decoration:;">管理类的依赖和执行依赖注入</tspan></tspan></text></g></g><g id="SvgjsG1353" transform="translate(348.66800465685094,75.90831947326663)"><path id="SvgjsPath1354" d="M 0 0L 116.18660555337522 0L 116.18660555337522 26.951055526733285L 0 26.951055526733285Z" stroke="rgba(50,50,50,1)" stroke-width="2" fill-opacity="1" fill="#ffffff"></path><g id="SvgjsG1355"><text id="SvgjsText1356" font-family="微软雅黑" text-anchor="middle" font-size="13px" width="65" fill="#323232" font-weight="400" align="middle" anchor="middle" family="微软雅黑" size="13px" weight="400" font-style="" opacity="1" y="3.525527763366642" transform="rotate(0)"><tspan id="SvgjsTspan1357" dy="16" x="58.5"><tspan id="SvgjsTspan1358" style="text-decoration:;">自动加载类</tspan></tspan></text></g></g><g id="SvgjsG1359" transform="translate(122.45185728867835,199.42187499999983)"><path id="SvgjsPath1360" d="M 0 0L 120 0L 120 40L 0 40Z" stroke="none" fill="none"></path><g id="SvgjsG1361"><text id="SvgjsText1362" font-family="微软雅黑" text-anchor="middle" font-size="17px" width="34" fill="#323232" font-weight="400" align="middle" anchor="middle" family="微软雅黑" size="17px" weight="400" font-style="" opacity="1" y="6.95" transform="rotate(0)"><tspan id="SvgjsTspan1363" dy="21" x="60"><tspan id="SvgjsTspan1364" style="text-decoration:;">请求</tspan></tspan></text></g></g><g id="SvgjsG1365" transform="translate(458.95599579677435,109.51464843749994)"><path id="SvgjsPath1366" d="M 0 0L 334.9999999999999 0L 334.9999999999999 38.71093749999994L 0 38.71093749999994Z" stroke="none" fill="none"></path><g id="SvgjsG1367"><text id="SvgjsText1368" font-family="微软雅黑" text-anchor="middle" font-size="13px" width="286" fill="#323232" font-weight="400" align="middle" anchor="middle" family="微软雅黑" size="13px" weight="400" font-style="" opacity="1" y="9.405468749999972" transform="rotate(0)"><tspan id="SvgjsTspan1369" dy="16" x="167.5"><tspan id="SvgjsTspan1370" style="text-decoration:;">bootstrap/app.php取得 Laravel 应用程序的实例</tspan></tspan></text></g></g><g id="SvgjsG1371"><path id="SvgjsPath1372" d="M297.3281052112578 177.23437499999983L322.93401099699065 177.23437499999983L322.93401099699065 120.34850833518436L348.5399167827235 120.34850833518436" stroke="#323232" stroke-width="2" fill="none" marker-end="url(#SvgjsMarker1373)"></path></g><g id="SvgjsG1375" transform="translate(478.8224929946241,79.9283882677554)"><path id="SvgjsPath1376" d="M 0 0L 224.375 0L 224.375 19.726562499999886L 0 19.726562499999886Z" stroke="none" fill="none"></path><g id="SvgjsG1377"><text id="SvgjsText1378" font-family="微软雅黑" text-anchor="middle" font-size="13px" width="215" fill="#323232" font-weight="400" align="middle" anchor="middle" family="微软雅黑" size="13px" weight="400" font-style="" opacity="1" y="-0.0867187500000568" transform="rotate(0)"><tspan id="SvgjsTspan1379" dy="16" x="112.5"><tspan id="SvgjsTspan1380" style="text-decoration:;">加载 Composer 生成的自动加载设置</tspan></tspan></text></g></g><g id="SvgjsG1381" transform="translate(134.4570859670639,317.8117580413817)"><path id="SvgjsPath1382" d="M 0 4Q 0 0 4 0L 157.24999999999997 0Q 161.24999999999997 0 161.24999999999997 4L 161.24999999999997 37.6650390625Q 161.24999999999997 41.6650390625 157.24999999999997 41.6650390625L 4 41.6650390625Q 0 41.6650390625 0 37.6650390625Z" stroke="rgba(50,50,50,1)" stroke-width="2" fill-opacity="1" fill="#ffffff"></path><g id="SvgjsG1383"><text id="SvgjsText1384" font-family="微软雅黑" text-anchor="middle" font-size="13px" width="91" fill="#323232" font-weight="700" align="middle" anchor="middle" family="微软雅黑" size="13px" weight="700" font-style="" opacity="1" y="10.88251953125" transform="rotate(0)"><tspan id="SvgjsTspan1385" dy="16" x="81"><tspan id="SvgjsTspan1386" style="text-decoration:;">载入服务提供者</tspan></tspan></text></g></g><g id="SvgjsG1387"><path id="SvgjsPath1388" d="M214.92713832855225 279.1093749999999L214.92713832855225 298.4605665206908L215.0820859670639 298.4605665206908L215.0820859670639 317.8117580413817" stroke="#323232" stroke-width="2" fill="none" marker-end="url(#SvgjsMarker1389)"></path></g><g id="SvgjsG1391" transform="translate(318.6674330218234,288.43998270319554)"><path id="SvgjsPath1392" d="M 0 0L 226.25 0L 226.25 31.25L 0 31.25Z" stroke="none" fill="none"></path><g id="SvgjsG1393"><text id="SvgjsText1394" font-family="微软雅黑" text-anchor="middle" font-size="13px" width="221" fill="#323232" font-weight="400" align="middle" anchor="middle" family="微软雅黑" size="13px" weight="400" font-style="" opacity="1" y="5.675" transform="rotate(0)"><tspan id="SvgjsTspan1395" dy="16" x="113.5"><tspan id="SvgjsTspan1396" style="text-decoration:;">如数据库、队列、验证器以及路由组件</tspan></tspan></text></g></g><g id="SvgjsG1397" transform="translate(116.81249999999989,364.1093749999998)"><path id="SvgjsPath1398" d="M 0 0L 88.12499999999994 0L 88.12499999999994 36.25L 0 36.25Z" stroke="none" fill="none"></path><g id="SvgjsG1399"><text id="SvgjsText1400" font-family="微软雅黑" text-anchor="middle" font-size="13px" width="78" fill="#323232" font-weight="400" align="middle" anchor="middle" family="微软雅黑" size="13px" weight="400" font-style="" opacity="1" y="0.17500000000000004" transform="rotate(0)"><tspan id="SvgjsTspan1401" dy="16" x="44.5"><tspan id="SvgjsTspan1402" style="text-decoration:;">所有服务提供</tspan></tspan><tspan id="SvgjsTspan1403" dy="16" x="44.5"><tspan id="SvgjsTspan1404" style="text-decoration:;">者都注册完成</tspan></tspan></text></g></g><g id="SvgjsG1405" transform="translate(134.48180520534515,409.1093749999999)"><path id="SvgjsPath1406" d="M 0 4Q 0 0 4 0L 157.24999999999997 0Q 161.24999999999997 0 161.24999999999997 4L 161.24999999999997 37.6650390625Q 161.24999999999997 41.6650390625 157.24999999999997 41.6650390625L 4 41.6650390625Q 0 41.6650390625 0 37.6650390625Z" stroke="rgba(50,50,50,1)" stroke-width="2" fill-opacity="1" fill="#ffffff"></path><g id="SvgjsG1407"><text id="SvgjsText1408" font-family="微软雅黑" text-anchor="middle" font-size="13px" width="52" fill="#323232" font-weight="700" align="middle" anchor="middle" family="微软雅黑" size="13px" weight="700" font-style="" opacity="1" y="10.88251953125" transform="rotate(0)"><tspan id="SvgjsTspan1409" dy="16" x="81"><tspan id="SvgjsTspan1410" style="text-decoration:;">分发请求</tspan></tspan></text></g></g><g id="SvgjsG1411"><path id="SvgjsPath1412" d="M215.0820859670639 359.4767971038817L215.0820859670639 384.2930860519408L215.10680520534515 384.2930860519408L215.10680520534515 409.1093749999999" stroke="#323232" stroke-width="2" fill="none" marker-end="url(#SvgjsMarker1413)"></path></g><g id="SvgjsG1415" transform="translate(345.2499999999999,411.68749999999966)"><path id="SvgjsPath1416" d="M 0 4Q 0 0 4 0L 54.75 0Q 58.75 0 58.75 4L 58.75 24.125Q 58.75 28.125 54.75 28.125L 4 28.125Q 0 28.125 0 24.125Z" stroke="rgba(50,50,50,1)" stroke-width="2" fill-opacity="1" fill="#ffffff"></path><g id="SvgjsG1417"><text id="SvgjsText1418" font-family="微软雅黑" text-anchor="middle" font-size="13px" width="26" fill="#323232" font-weight="400" align="middle" anchor="middle" family="微软雅黑" size="13px" weight="400" font-style="" opacity="1" y="4.1125" transform="rotate(0)"><tspan id="SvgjsTspan1419" dy="16" x="29.5"><tspan id="SvgjsTspan1420" style="text-decoration:;">路由</tspan></tspan></text></g></g><g id="SvgjsG1421" transform="translate(502.85331718364296,440.81785690784443)"><path id="SvgjsPath1422" d="M 0 4Q 0 0 4 0L 57.657714843748636 0Q 61.657714843748636 0 61.657714843748636 4L 61.657714843748636 22.874999999999886Q 61.657714843748636 26.874999999999886 57.657714843748636 26.874999999999886L 4 26.874999999999886Q 0 26.874999999999886 0 22.874999999999886Z" stroke="rgba(50,50,50,1)" stroke-width="2" fill-opacity="1" fill="#ffffff"></path><g id="SvgjsG1423"><text id="SvgjsText1424" font-family="微软雅黑" text-anchor="middle" font-size="13px" width="39" fill="#323232" font-weight="400" align="middle" anchor="middle" family="微软雅黑" size="13px" weight="400" font-style="" opacity="1" y="3.487499999999943" transform="rotate(0)"><tspan id="SvgjsTspan1425" dy="16" x="31"><tspan id="SvgjsTspan1426" style="text-decoration:;">控制器</tspan></tspan></text></g></g><g id="SvgjsG1427"><path id="SvgjsPath1428" d="M403.9999999999999 425.74999999999966L453.674936198003 425.74999999999966L453.674936198003 454.25535690784443L503.3498723960063 454.25535690784443" stroke="#323232" stroke-width="2" fill="none" marker-end="url(#SvgjsMarker1429)"></path></g><g id="SvgjsG1431" transform="translate(352.4375,435.9843749999999)"><path id="SvgjsPath1432" d="M 0 0L 120 0L 120 40L 0 40Z" stroke="none" fill="none"></path><g id="SvgjsG1433"><text id="SvgjsText1434" font-family="微软雅黑" text-anchor="middle" font-size="13px" width="52" fill="#323232" font-weight="400" align="middle" anchor="middle" family="微软雅黑" size="13px" weight="400" font-style="" opacity="1" y="10.05" transform="rotate(0)"><tspan id="SvgjsTspan1435" dy="16" x="60"><tspan id="SvgjsTspan1436" style="text-decoration:;">分发请求</tspan></tspan></text></g></g><g id="SvgjsG1437" transform="translate(451.47516690348743,390.43281023204304)"><path id="SvgjsPath1438" d="M 0 4Q 0 0 4 0L 57.657714843748636 0Q 61.657714843748636 0 61.657714843748636 4L 61.657714843748636 22.874999999999886Q 61.657714843748636 26.874999999999886 57.657714843748636 26.874999999999886L 4 26.874999999999886Q 0 26.874999999999886 0 22.874999999999886Z" stroke="rgba(50,50,50,1)" stroke-width="2" fill-opacity="1" fill="#ffffff"></path><g id="SvgjsG1439"><text id="SvgjsText1440" font-family="微软雅黑" text-anchor="middle" font-size="13px" width="39" fill="#323232" font-weight="400" align="middle" anchor="middle" family="微软雅黑" size="13px" weight="400" font-style="" opacity="1" y="3.487499999999943" transform="rotate(0)"><tspan id="SvgjsTspan1441" dy="16" x="31"><tspan id="SvgjsTspan1442" style="text-decoration:;">中间件</tspan></tspan></text></g></g><g id="SvgjsG1443"><path id="SvgjsPath1444" d="M403.9999999999999 425.74999999999966L427.7375834517436 425.74999999999966L427.7375834517436 403.8703102320429L451.47516690348743 403.8703102320429" stroke="#323232" stroke-width="2" fill="none" marker-end="url(#SvgjsMarker1445)"></path></g><g id="SvgjsG1447" transform="translate(352.7497656234908,324.4448087406852)"><path id="SvgjsPath1448" d="M 0 0L 110.72753906249977 0L 110.72753906249977 28.241045534610976L 0 28.241045534610976Z" stroke="rgba(50,50,50,1)" stroke-width="2" fill-opacity="1" fill="#ffffff"></path><g id="SvgjsG1449"><text id="SvgjsText1450" font-family="微软雅黑" text-anchor="middle" font-size="13px" width="52" fill="#ff6666" font-weight="700" align="middle" anchor="middle" family="微软雅黑" size="13px" weight="700" font-style="" opacity="1" y="4.170522767305488" transform="rotate(0)"><tspan id="SvgjsTspan1451" dy="16" x="55.5"><tspan id="SvgjsTspan1452" style="text-decoration:;">服务容器</tspan></tspan></text></g></g><g id="SvgjsG1453"><path id="SvgjsPath1454" d="M295.7070859670639 338.6442775726317L324.2284257952774 338.6442775726317L324.2284257952774 338.56533150799066L352.7497656234908 338.56533150799066" stroke="#323232" stroke-width="2" fill="none" marker-end="url(#SvgjsMarker1455)"></path></g><g id="SvgjsG1457" transform="translate(542.4374999999995,316.0347548144972)"><path id="SvgjsPath1458" d="M 0 0L 218.7499999999999 0L 218.7499999999999 23.64875946717825L 0 23.64875946717825Z" stroke="none" fill="none"></path><g id="SvgjsG1459"><text id="SvgjsText1460" font-family="微软雅黑" text-anchor="middle" font-size="13px" width="126" fill="#323232" font-weight="400" align="middle" anchor="middle" family="微软雅黑" size="13px" weight="400" font-style="" opacity="1" y="-30.125620266410873" transform="rotate(0)"><tspan id="SvgjsTspan1461" dy="16" x="109.5"><tspan id="SvgjsTspan1462" style="text-decoration:;">Laravel 的核心服务器</tspan></tspan><tspan id="SvgjsTspan1463" dy="16" x="109.5"><tspan id="SvgjsTspan1464" style="text-decoration:;">注册服务容器绑定</tspan></tspan><tspan id="SvgjsTspan1465" dy="16" x="109.5"><tspan id="SvgjsTspan1466" style="text-decoration:;">事件监听</tspan></tspan><tspan id="SvgjsTspan1467" dy="16" x="109.5"><tspan id="SvgjsTspan1468" style="text-decoration:;">中间件</tspan></tspan><tspan id="SvgjsTspan1469" dy="16" x="109.5"><tspan id="SvgjsTspan1470" style="text-decoration:;">路由注册</tspan></tspan></text></g></g><g id="SvgjsG1471"><path id="SvgjsPath1472" d="M513.1328817472361 403.87031023204304L533.6821746055173 403.87031023204304L533.6821746055173 440.81785690784443" stroke="#323232" stroke-width="2" fill="none" marker-end="url(#SvgjsMarker1473)"></path></g></svg>